G04 ================== begin FILE IDENTIFICATION RECORD ==================*
G04 Layout Name:  F:/IMLab_Git/IMLAB_F103C8/IMLAB_F103C8.brd*
G04 Film Name:    BOTTOM*
G04 File Format:  Gerber RS274X*
G04 File Origin:  Cadence Allegro 16.6-2015-S066*
G04 Origin Date:  Sat Apr 07 16:31:22 2018*
G04 *
G04 Layer:  ETCH/BOTTOM*
G04 Layer:  PIN/BOTTOM*
G04 Layer:  VIA CLASS/BOTTOM*
G04 *
G04 Offset:    (0.000 0.000)*
G04 Mirror:    No*
G04 Mode:      Positive*
G04 Rotation:  0*
G04 FullContactRelief:  No*
G04 UndefLineWidth:     6.000*
G04 ================== end FILE IDENTIFICATION RECORD ====================*
%FSLAX25Y25*MOIN*%
%IR0*IPPOS*OFA0.00000B0.00000*MIA0B0*SFA1.00000B1.00000*%
%AMMACRO15*
21,1,.037402,.035433,0.0,0.0,135.*%
%ADD15MACRO15*%
%ADD12C,.025*%
%ADD16R,.035433X.037402*%
%AMMACRO14*
21,1,.037402,.035433,0.0,0.0,45.*%
%ADD14MACRO14*%
%ADD13C,.031496*%
%ADD10C,.071654*%
%ADD11R,.071654X.071654*%
%ADD17C,.006*%
%ADD18C,.012*%
%ADD19C,.051438*%
%ADD21R,.045436X.047406*%
%ADD20C,.083658*%
G75*
%LPD*%
G75*
G36*
G01X2000Y2000D02*
Y14164D01*
G02X2714Y14412I400J0D01*
G03Y19588I3286J2588D01*
G02X2000Y19836I-314J248D01*
G01Y24164D01*
G02X2714Y24412I400J0D01*
G03Y29588I3286J2588D01*
G02X2000Y29836I-314J248D01*
G01Y34164D01*
G02X2714Y34412I400J0D01*
G03Y39588I3286J2588D01*
G02X2000Y39836I-314J248D01*
G01Y44164D01*
G02X2714Y44412I400J0D01*
G03Y49588I3286J2588D01*
G02X2000Y49836I-314J248D01*
G01Y54164D01*
G02X2714Y54412I400J0D01*
G03Y59588I3286J2589D01*
G02X2000Y59836I-314J248D01*
G01Y64164D01*
G02X2714Y64412I400J0D01*
G03Y69588I3286J2589D01*
G02X2000Y69836I-314J248D01*
G01Y74164D01*
G02X2714Y74412I400J0D01*
G03Y79588I3286J2589D01*
G02X2000Y79836I-314J248D01*
G01Y82817D01*
X10183D01*
Y91183D01*
X2000D01*
Y178000D01*
X98000D01*
Y119183D01*
X89817D01*
Y110817D01*
X98000D01*
Y107836D01*
G02X97286Y107588I-400J0D01*
G03Y102412I-3286J-2588D01*
G02X98000Y102164I314J-248D01*
G01Y97671D01*
G02X97279Y97433I-400J0D01*
G03Y92567I-3279J-2433D01*
G02X98000Y92329I321J-238D01*
G01Y87671D01*
G02X97279Y87433I-400J0D01*
G03Y82567I-3279J-2433D01*
G02X98000Y82329I321J-238D01*
G01Y79183D01*
X89817D01*
Y70817D01*
X98000D01*
Y67836D01*
G02X97286Y67588I-400J0D01*
G03X89817Y65000I-3286J-2588D01*
G01Y62090D01*
X88627Y60900D01*
X86531D01*
G02X86306Y61630I0J400D01*
G03X81694I-2306J3370D01*
G02X81469Y60900I-226J-330D01*
G01X72373D01*
X70850Y62423D01*
Y63000D01*
G03X69000Y61150I-1850J0D01*
G01X69577D01*
X71627Y59100D01*
X79817D01*
Y58173D01*
X78076Y56431D01*
X77325Y57131D01*
Y57470D01*
X72581D01*
Y52530D01*
X77325D01*
Y52869D01*
X78076Y53569D01*
X79817Y51827D01*
Y50900D01*
X70716D01*
X70318Y51299D01*
X70317Y51299D01*
G03Y48701I-1317J-1299D01*
G01X70318Y48701D01*
X70716Y49100D01*
X81296D01*
G02X81532Y48377I0J-400D01*
G03X81025Y47941I2468J-3377D01*
G01X81025Y47940D01*
X78985Y45900D01*
X77325D01*
Y47470D01*
X72581D01*
Y42530D01*
X77325D01*
Y44100D01*
X78985D01*
X81025Y42060D01*
X81025Y42059D01*
G03X81532Y41623I2975J2941D01*
G02X81296Y40900I-236J-323D01*
G01X76716D01*
X76318Y41299D01*
X76317Y41299D01*
G03Y38701I-1317J-1299D01*
G01X76318Y38701D01*
X76716Y39100D01*
X81469D01*
G02X81694Y38370I0J-400D01*
G03X81062Y32165I2305J-3370D01*
G02X80992Y31552I-288J-278D01*
G03X80923Y28495I1008J-1552D01*
G02X80979Y27893I-233J-325D01*
G03X79856Y24434I3021J-2893D01*
G02X79176Y24097I-396J-54D01*
G01X78900Y24373D01*
Y29284D01*
X79299Y29682D01*
X79299Y29683D01*
G03X76304Y31741I-1299J1317D01*
G02X75655Y31618I-367J160D01*
G01X69783Y37490D01*
Y38067D01*
G03X66234Y38799I-1850J0D01*
G01X66182Y38678D01*
X65850D01*
Y39000D01*
G03X64000Y37150I-1850J0D01*
G01X64577D01*
X64883Y36844D01*
Y36803D01*
X72100Y29586D01*
Y22627D01*
X86627Y8100D01*
X89627D01*
X89817Y7910D01*
Y5000D01*
G03X90555Y2627I4183J0D01*
G02X90226Y2000I-329J-227D01*
G01X2000D01*
G37*
G36*
G01X65250Y38050D02*
Y39000D01*
X63947Y39053D01*
X64000Y37750D01*
X64950D01*
G03X65250Y38050I0J300D01*
G37*
G36*
G01X69183Y37117D02*
Y38067D01*
X67880Y38120D01*
X67933Y36817D01*
X68883D01*
G03X69183Y37117I0J300D01*
G37*
G36*
G01X70556Y50212D02*
X69884Y50884D01*
X68925Y50000D01*
X69884Y49116D01*
X70556Y49788D01*
G03Y50212I-212J212D01*
G37*
G36*
G01X70250Y62050D02*
Y63000D01*
X68947Y63053D01*
X69000Y61750D01*
X69950D01*
G03X70250Y62050I0J300D01*
G37*
G36*
G01X76556Y40212D02*
X75884Y40884D01*
X74925Y40000D01*
X75884Y39116D01*
X76556Y39788D01*
G03Y40212I-212J212D01*
G37*
G36*
G01Y45212D02*
X75884Y45884D01*
X74925Y45000D01*
X75884Y44116D01*
X76556Y44788D01*
G03Y45212I-212J212D01*
G37*
G36*
G01X78524Y55193D02*
X76724Y56870D01*
X74878Y55000D01*
X76724Y53130D01*
X78524Y54807D01*
G03Y55193I-230J193D01*
G37*
G36*
G01X78212Y29444D02*
X78884Y30116D01*
X78000Y31075D01*
X77116Y30116D01*
X77788Y29444D01*
G03X78212I212J212D01*
G37*
G36*
G01X77689Y54805D02*
X80418Y52076D01*
X84075Y55000D01*
X80418Y57924D01*
X77689Y55195D01*
G03Y54805I228J-195D01*
G37*
G36*
G01X79146Y44788D02*
X81467Y42467D01*
X84075Y45000D01*
X81467Y47533D01*
X79146Y45212D01*
G03Y44788I212J-212D01*
G37*
G36*
G01X83556Y30212D02*
X82884Y30884D01*
X81925Y30000D01*
X82884Y29116D01*
X83556Y29788D01*
G03Y30212I-212J212D01*
G37*
G36*
G01X86531Y30900D02*
G02X86306Y31630I0J400D01*
G03Y38370I-2306J3370D01*
G02X86531Y39100I226J330D01*
G01X89373D01*
X91090Y40817D01*
X94000D01*
G03X97286Y42412I0J4183D01*
G02X98000Y42164I314J-248D01*
G01Y37836D01*
G02X97286Y37588I-400J0D01*
G03X89817Y35000I-3286J-2588D01*
G01Y32090D01*
X88627Y30900D01*
X86531D01*
G37*
G36*
G01X90417Y8283D02*
Y5000D01*
X94053Y4947D01*
X94000Y8583D01*
X90717D01*
G03X90417Y8283I0J-300D01*
G37*
G36*
G01X89146Y14788D02*
X91467Y12467D01*
X94075Y15000D01*
X91467Y17533D01*
X89146Y15212D01*
G03Y14788I212J-212D01*
G37*
G36*
G01X90717Y21417D02*
X94000D01*
X94053Y25053D01*
X90417Y25000D01*
Y21717D01*
G03X90717Y21417I300J0D01*
G37*
G36*
G01Y31417D02*
X94000D01*
X94053Y35053D01*
X90417Y35000D01*
Y31717D01*
G03X90717Y31417I300J0D01*
G37*
G36*
G01Y41417D02*
X94000D01*
X94053Y45053D01*
X90417Y45000D01*
Y41717D01*
G03X90717Y41417I300J0D01*
G37*
G36*
G01Y51417D02*
X94000D01*
X94053Y55053D01*
X90417Y55000D01*
Y51717D01*
G03X90717Y51417I300J0D01*
G37*
G36*
G01Y61417D02*
X94000D01*
X94053Y65053D01*
X90417Y65000D01*
Y61717D01*
G03X90717Y61417I300J0D01*
G37*
%LPC*%
G75*
G36*
G01X71370Y89982D02*
X68018Y86630D01*
X64805Y89842D01*
X68158Y93195D01*
X71370Y89982D01*
G37*
G36*
G01X67336Y94158D02*
X63842Y90664D01*
X60488Y94018D01*
X63982Y97512D01*
X67336Y94158D01*
G37*
G36*
G01X61370Y99982D02*
X58018Y96630D01*
X54805Y99842D01*
X58158Y103195D01*
X61370Y99982D01*
G37*
G36*
G01X57336Y104158D02*
X53842Y100664D01*
X50488Y104018D01*
X53982Y107512D01*
X57336Y104158D01*
G37*
G36*
G01X53512Y97982D02*
X50018Y94488D01*
X46664Y97842D01*
X50158Y101336D01*
X53512Y97982D01*
G37*
G36*
G01Y60982D02*
X50018Y57488D01*
X46664Y60842D01*
X50158Y64336D01*
X53512Y60982D01*
G37*
G36*
G01X49195Y102158D02*
X45842Y98805D01*
X42630Y102018D01*
X45982Y105370D01*
X49195Y102158D01*
G37*
G36*
G01Y65158D02*
X45842Y61805D01*
X42630Y65018D01*
X45982Y68370D01*
X49195Y65158D01*
G37*
G36*
G01X33195Y100158D02*
X29842Y96805D01*
X26630Y100018D01*
X29982Y103370D01*
X33195Y100158D01*
G37*
G36*
G01X92851Y146154D02*
X89497Y142800D01*
X67408D01*
G02X67294Y142678I-1408J1200D01*
G01X67293Y142677D01*
X67200Y142583D01*
Y140497D01*
X67200Y126497D01*
X70497Y123200D01*
X85061D01*
Y100319D01*
X85200Y100180D01*
Y100158D01*
X86194Y99183D01*
X88183D01*
Y90817D01*
X79817D01*
Y99183D01*
X81806D01*
X82660Y100021D01*
Y120800D01*
X69503D01*
X64800Y125503D01*
Y139503D01*
X64800Y142583D01*
X64706Y142677D01*
X64705Y142678D01*
G02X67408Y145200I1294J1322D01*
G01X88503D01*
X91154Y147851D01*
X91151Y147938D01*
G02X92938Y146151I1849J62D01*
G01X92851Y146154D01*
G37*
G36*
G01X24664Y89842D02*
X27891Y93069D01*
X29681Y93202D01*
X30798Y94319D01*
X30931Y96109D01*
X34158Y99336D01*
X37512Y95982D01*
X34285Y92755D01*
X32495Y92622D01*
X31378Y91505D01*
X31245Y89715D01*
X28018Y86488D01*
X24664Y89842D01*
G37*
G36*
G01X25503Y74800D02*
X19800Y80503D01*
Y91673D01*
X20622Y92495D01*
X20755Y94285D01*
X23982Y97512D01*
X27336Y94158D01*
X24109Y90931D01*
X22319Y90798D01*
X22200Y90679D01*
Y81497D01*
X26497Y77200D01*
X48584D01*
X48677Y77294D01*
X48678Y77295D01*
G02Y74705I1322J-1295D01*
G01X48677Y74706D01*
X48584Y74800D01*
X25503D01*
G37*
G36*
G01X57716Y74900D02*
X58429D01*
Y75235D01*
X58304Y75286D01*
G02X60317Y78299I696J1714D01*
G01X60318Y78299D01*
X60716Y77900D01*
X75627D01*
X79817Y82090D01*
Y85000D01*
G02X84000Y80817I4183J0D01*
G01X81090D01*
X76856Y76583D01*
G03X77139Y75900I283J-283D01*
G01X78985D01*
X81025Y77940D01*
G02X81025Y72059I2975J-2940D01*
G01X81025Y72060D01*
X78985Y74100D01*
X63396D01*
G03X63113Y73417I0J-400D01*
G01X65512Y71018D01*
X62158Y67664D01*
X61767Y68054D01*
X59137Y69957D01*
X59046D01*
G03X58763Y69274I0J-400D01*
G01X61195Y66842D01*
X57982Y63630D01*
X54630Y66982D01*
X56922Y69274D01*
G03X56640Y69957I-283J283D01*
G01X51574D01*
X51480Y69864D01*
X51480Y69863D01*
G02Y72452I-1322J1295D01*
G01X51480Y72451D01*
X51574Y72358D01*
X54124D01*
G03X54457Y72978I0J400D01*
G02X57317Y75299I1543J1022D01*
G01X57318Y75299D01*
X57716Y74900D01*
G37*
G36*
G01X65588Y56200D02*
X66675Y57144D01*
Y57470D01*
X71419D01*
Y52530D01*
X66675D01*
Y52856D01*
X65588Y53800D01*
X61497D01*
X58000Y50302D01*
X57502Y50800D01*
X51574D01*
X51480Y50706D01*
G02X51452Y50678I-1323J1294D01*
G01X51451Y50677D01*
X51358Y50584D01*
Y49153D01*
X51200Y48995D01*
Y26416D01*
X51294Y26323D01*
X51295Y26322D01*
G02X48706I-1295J-1322D01*
G01X48706Y26323D01*
X48800Y26416D01*
Y49990D01*
X48957Y50147D01*
Y50584D01*
X48864Y50677D01*
X48863Y50678D01*
G02X51480Y53295I1294J1322D01*
G01X51480Y53294D01*
X51574Y53200D01*
X57503D01*
X60503Y56200D01*
X65588D01*
G37*
G54D19*
X15339Y165000D03*
X32661D03*
G54D21*
X69047Y45000D03*
G54D20*
X30394Y122000D03*
X49606D03*
%LPD*%
G75*
G36*
G01X21641Y91349D02*
X23843Y91513D01*
X24018Y94194D01*
X21337Y94018D01*
X21173Y91817D01*
G03X21641Y91349I588J120D01*
G37*
G36*
G01X30359Y92651D02*
X28158Y92487D01*
X27982Y89806D01*
X30663Y89982D01*
X30827Y92183D01*
G03X30359Y92651I-588J-120D01*
G37*
G36*
G01X31817Y93173D02*
X34018Y93337D01*
X34194Y96018D01*
X31513Y95842D01*
X31349Y93641D01*
G03X31817Y93173I588J120D01*
G37*
G36*
G01X48656Y75576D02*
X49116Y75116D01*
X50150Y76000D01*
X49116Y76884D01*
X48656Y76424D01*
G03Y75576I424J-424D01*
G37*
G36*
G01X49576Y26344D02*
X49116Y25884D01*
X50000Y24850D01*
X50884Y25884D01*
X50424Y26344D01*
G03X49576I-424J-424D01*
G37*
G36*
G01X50582Y50657D02*
X51041Y51116D01*
X50158Y52150D01*
X49274Y51116D01*
X49733Y50657D01*
G03X50582I424J424D01*
G37*
G36*
G01X51501Y52424D02*
X51041Y52884D01*
X50008Y52000D01*
X51041Y51116D01*
X51501Y51576D01*
G03Y52424I-424J424D01*
G37*
G36*
G01Y71582D02*
X51041Y72041D01*
X50008Y71158D01*
X51041Y70274D01*
X51501Y70733D01*
G03Y71582I-424J424D01*
G37*
G36*
G01X57556Y74212D02*
X56884Y74884D01*
X55925Y74000D01*
X56884Y73116D01*
X57556Y73788D01*
G03Y74212I-212J212D01*
G37*
G36*
G01X59088Y70733D02*
X62158Y68513D01*
X62238Y71084D01*
X62018Y73663D01*
X59088Y71582D01*
G03Y70733I424J-424D01*
G37*
G36*
G01X60556Y77212D02*
X59884Y77884D01*
X58925Y77000D01*
X59884Y76116D01*
X60556Y76788D01*
G03Y77212I-212J212D01*
G37*
G36*
G01X65509Y54663D02*
X67276Y53130D01*
X69197Y55000D01*
X67276Y56870D01*
X65509Y55337D01*
G03Y54663I496J-337D01*
G37*
G36*
G01X66424Y142656D02*
X66884Y143116D01*
X66000Y144150D01*
X65116Y143116D01*
X65575Y142656D01*
G03X66424I424J424D01*
G37*
G36*
G01X70422Y66576D02*
X70882Y66116D01*
X71916Y67000D01*
X70882Y67884D01*
X70422Y67424D01*
G03Y66576I424J-424D01*
G37*
G36*
G01X79146Y74788D02*
X81467Y72467D01*
X84075Y75000D01*
X81467Y77533D01*
X79146Y75212D01*
G03Y74788I212J-212D01*
G37*
G36*
G01X80717Y81417D02*
X84000D01*
X84053Y85053D01*
X80417Y85000D01*
Y81717D01*
G03X80717Y81417I300J0D01*
G37*
G36*
G01X83705Y100205D02*
X82051Y98582D01*
X84000Y94850D01*
X85949Y98582D01*
X84295Y100205D01*
G03X83705I-295J-522D01*
G37*
G54D10*
X6000Y17000D03*
Y27000D03*
Y37000D03*
Y47000D03*
Y57000D03*
Y67000D03*
Y77000D03*
X30394Y122000D03*
X49606D03*
X84000Y25000D03*
Y35000D03*
Y45000D03*
Y65000D03*
Y75000D03*
Y85000D03*
X94000Y5000D03*
Y15000D03*
Y25000D03*
Y35000D03*
Y45000D03*
Y55000D03*
Y65000D03*
Y85000D03*
Y95000D03*
Y105000D03*
G54D11*
X6000Y87000D03*
X84000Y55000D03*
Y95000D03*
X94000Y75000D03*
Y115000D03*
G54D12*
X10000Y10000D03*
X20000Y70000D03*
Y110000D03*
Y130000D03*
Y170000D03*
X28000Y90000D03*
X30000Y10000D03*
Y30000D03*
Y50000D03*
Y170000D03*
X46000Y65000D03*
X50000Y10000D03*
Y25000D03*
X50158Y52000D03*
X50088Y60912D03*
X50158Y71158D03*
X50000Y76000D03*
Y98000D03*
X54953Y45000D03*
X56000Y74000D03*
X54176Y103824D03*
X58016Y99984D03*
X59000Y77000D03*
X60000Y130000D03*
X62000Y71000D03*
X63824Y94000D03*
X64000Y39000D03*
X66000Y144000D03*
X67933Y38067D03*
X69000Y50000D03*
Y63000D03*
X70000Y10000D03*
X71766Y67000D03*
X70000Y160000D03*
X75000Y40000D03*
Y45000D03*
X74953Y55000D03*
X78000Y31000D03*
X82000Y30000D03*
X90000Y160000D03*
X94000Y138953D03*
X93000Y148000D03*
G54D13*
X15339Y165000D03*
X32661D03*
G54D14*
X23912Y94088D03*
X28088Y89912D03*
X29912Y100088D03*
X34088Y95912D03*
X45912Y65088D03*
Y102088D03*
X50088Y60912D03*
Y97912D03*
X53912Y104088D03*
X58088Y99912D03*
X63912Y94088D03*
X68088Y89912D03*
G54D15*
X57912Y66912D03*
X62088Y71088D03*
G54D16*
X69047Y45000D03*
Y55000D03*
X74953Y45000D03*
Y55000D03*
G54D17*
G01X56000Y74000D02*
X59041D01*
X60041Y75000D01*
X84000D01*
G01X59000Y77000D02*
X76000D01*
X84000Y85000D01*
G01X64000Y39000D02*
X65783Y37217D01*
Y37176D01*
X73000Y29959D01*
Y23000D01*
X87000Y9000D01*
X90000D01*
X94000Y5000D01*
G01X67933Y38067D02*
X76000Y30000D01*
Y23000D01*
X84000Y15000D01*
X94000D01*
G01X69000Y50000D02*
X89000D01*
X94000Y55000D01*
G01Y65000D02*
X89000Y60000D01*
X72000D01*
X69000Y63000D01*
G01X75000Y40000D02*
X89000D01*
X94000Y45000D01*
G01X84000D02*
X75000D01*
G01D02*
X74953D01*
G01X84000Y55000D02*
X74953D01*
G01X78000Y31000D02*
Y24000D01*
X84000Y18000D01*
X87000D01*
X94000Y25000D01*
G01X82000Y30000D02*
X89000D01*
X94000Y35000D01*
G54D18*
G01X50000Y76000D02*
X26000D01*
X21000Y81000D01*
Y91176D01*
X23912Y94088D01*
G01X34088Y95912D02*
X28088Y89912D01*
G01X28095Y98270D02*
X29912Y100088D01*
G01X28164Y101836D02*
X29912Y100088D01*
G01D02*
X31660Y98340D01*
G01X29912Y100088D02*
X31730Y101905D01*
G01X44095Y63270D02*
X45912Y65088D01*
G01X44164Y66836D02*
X45912Y65088D01*
G01X44095Y100270D02*
X45912Y102088D01*
G01X44164Y103836D02*
X45912Y102088D01*
G01Y65088D02*
X47660Y63340D01*
G01X45912Y65088D02*
X47730Y66905D01*
G01X45912Y102088D02*
X47660Y100340D01*
G01X45912Y102088D02*
X47730Y103905D01*
G01X50000Y25000D02*
Y49492D01*
X50158Y49650D01*
Y52000D01*
G01D02*
X58000D01*
X61000Y55000D01*
X69047D01*
G01X50158Y71158D02*
X62018D01*
X62088Y71088D01*
G01X50088Y97912D02*
X50000Y98000D01*
G01X56164Y65164D02*
X57912Y66912D01*
G01X56095Y68730D02*
X57912Y66912D01*
G01X56270Y98095D02*
X58088Y99912D01*
G01X56340Y101660D02*
X58088Y99912D01*
G01X57912Y66912D02*
X59730Y65095D01*
G01X71766Y67000D02*
X58000D01*
X57912Y66912D01*
G01X58088Y99912D02*
X59836Y98164D01*
G01X58088Y99912D02*
X59905Y101730D01*
G01X66575Y45000D02*
X69047D01*
G01X66270Y88095D02*
X68088Y89912D01*
G01X66340Y91660D02*
X68088Y89912D01*
G01D02*
X69836Y88164D01*
G01X68088Y89912D02*
X69905Y91730D01*
G01X66000Y144000D02*
Y140000D01*
X66000Y126000D01*
X70000Y122000D01*
X83861D01*
Y99822D01*
X84000Y99683D01*
Y95000D01*
G01X66000Y144000D02*
X89000D01*
X93000Y148000D01*
G01X69047Y42430D02*
Y45000D01*
G01D02*
X71519D01*
G01X79717Y35000D02*
X84000D01*
G01X79717Y65000D02*
X84000D01*
G01Y35000D02*
X88283D01*
G01X84000Y65000D02*
Y69283D01*
G01Y65000D02*
X88283D01*
G01X89717Y85000D02*
X94000D01*
G01X89717Y95000D02*
X94000D01*
G01Y80717D02*
Y85000D01*
G01D02*
Y89283D01*
G01Y90717D02*
Y95000D01*
G01D02*
Y99283D01*
M02*
