M48
INCH,TZ
T01C.008
T02C.012
T03C.040157
T04C.035433
;LEADER: 12 
;HEADER: 
;CODE  : ASCII 
;FILE  : IMLAB_F103C8-1-2.drl for board #Taaaaab15048.tmp ... layers TOP and BOTTOM
;T01 Holesize 1. = 8.000000 Tolerance = +0.000000/-0.000000 PLATED MILS Quantity = 12
;T02 Holesize 2. = 12.000000 Tolerance = +0.000000/-0.000000 PLATED MILS Quantity = 29
;T03 Holesize 3. = 40.157000 Tolerance = +0.000000/-0.000000 PLATED MILS Quantity = 30
;T04 Holesize 4. = 35.433000 Tolerance = +0.000000/-0.000000 NON_PLATED MILS Quantity = 2
%
G90
T01
X82000Y30000
X75000Y44000
X75000Y40000
X64000Y45000
X62000Y43000
X60000Y41000
X70000Y50000
X74000Y55000
X69000Y64000
X57000Y75000
X60000Y77000
X63824Y94000
T02
X10000Y10000
X30000Y10000
X30000Y30000
X30000Y50000
X46000Y65000
X20000Y70000
X28000Y90000
X20000Y110000
X20000Y130000
X20000Y170000
X30000Y170000
X90000Y160000
X70000Y160000
X66000Y144000
X94000Y138953
X60000Y130000
X54176Y103824
X58016Y99984
X50000Y98000
X50000Y76000
X50158Y71158
X62000Y71000
X71766Y67000
X50088Y60912
X50158Y52000
X54953Y45000
X50000Y25000
X70000Y10000
X50000Y10000
T03
X6000Y17000
X6000Y27000
X6000Y37000
X6000Y47000
X6000Y57000
X6000Y67000
X6000Y77000
X6000Y87000
X30394Y122000
X49606Y122000
X84000Y95000
X84000Y85000
X84000Y75000
X84000Y65000
X84000Y55000
X84000Y45000
X84000Y35000
X84000Y25000
X94000Y5000
X94000Y15000
X94000Y25000
X94000Y35000
X94000Y45000
X94000Y55000
X94000Y65000
X94000Y75000
X94000Y85000
X94000Y95000
X94000Y105000
X94000Y115000
T04
X15339Y159000
X32661Y159000
M30
