G04 ================== begin FILE IDENTIFICATION RECORD ==================*
G04 Layout Name:  F:/IMLab_Git/IMLAB_F103C8/IMLAB_F103C8.brd*
G04 Film Name:    SILKSCREEN_TOP*
G04 File Format:  Gerber RS274X*
G04 File Origin:  Cadence Allegro 16.6-2015-S066*
G04 Origin Date:  Sat Apr 07 16:31:22 2018*
G04 *
G04 Layer:  REF DES/SILKSCREEN_TOP*
G04 Layer:  PACKAGE GEOMETRY/SILKSCREEN_TOP*
G04 Layer:  BOARD GEOMETRY/OUTLINE*
G04 Layer:  BOARD GEOMETRY/SILKSCREEN_TOP*
G04 *
G04 Offset:    (0.000 0.000)*
G04 Mirror:    No*
G04 Mode:      Positive*
G04 Rotation:  0*
G04 FullContactRelief:  No*
G04 UndefLineWidth:     6.000*
G04 ================== end FILE IDENTIFICATION RECORD ====================*
%FSLAX25Y25*MOIN*%
%IR0*IPPOS*OFA0.00000B0.00000*MIA0B0*SFA1.00000B1.00000*%
%ADD10C,.006*%
G75*
%LPD*%
G75*
G54D10*
G01X2500Y0D02*
X97500D01*
G03X100000Y2500I0J2500D01*
G01Y177500D01*
G03X97500Y180000I-2500J0D01*
G01X2500D01*
G03X0Y177500I0J-2500D01*
G01Y2500D01*
G03X2500Y0I2500J0D01*
G01X1000Y92000D02*
Y12000D01*
X11000D01*
Y92000D01*
X1000D01*
G01X8000Y129716D02*
X14890D01*
Y94284D01*
X1110D01*
Y129716D01*
X8000D01*
G01X2633Y7000D02*
X2950Y6500D01*
X3330Y6167D01*
X3773Y6000D01*
X4280Y6167D01*
X4660Y6500D01*
X5040Y7000D01*
X5167Y7667D01*
Y11000D01*
G01X7607Y7000D02*
X7987Y6417D01*
X8493Y6083D01*
X9063Y6000D01*
X9570Y6083D01*
X10077Y6500D01*
X10393Y7000D01*
X10457Y7500D01*
X10330Y8083D01*
X9887Y8500D01*
X9443Y8667D01*
X8873D01*
G01X9443D02*
X9823Y8917D01*
X10140Y9333D01*
X10267Y9833D01*
X10140Y10333D01*
X9823Y10750D01*
X9253Y11000D01*
X8683Y10917D01*
X8113Y10583D01*
G01X8000Y106094D02*
X4063D01*
Y117906D01*
X11937D01*
Y106094D01*
X8000D01*
Y101173D01*
G01X2345Y130413D02*
X2652Y130155D01*
X2997Y130000D01*
X3303D01*
X3610Y130155D01*
X3840Y130413D01*
X3955Y130775D01*
X3878Y131137D01*
X3687Y131447D01*
X3342Y131653D01*
X2882Y131757D01*
X2613Y131963D01*
X2498Y132325D01*
X2575Y132687D01*
X2767Y132945D01*
X3035Y133100D01*
X3303D01*
X3572Y132997D01*
X3802Y132738D01*
G01X6250Y130000D02*
Y133100D01*
X5790Y132480D01*
G01Y130000D02*
X6710D01*
G01X4507Y142000D02*
Y138417D01*
X4760Y137666D01*
X5267Y137167D01*
X5900Y137000D01*
X6533Y137167D01*
X7040Y137666D01*
X7293Y138417D01*
Y142000D01*
G01X9797Y141167D02*
X10177Y141667D01*
X10620Y141917D01*
X11127Y142000D01*
X11760Y141833D01*
X12203Y141417D01*
X12330Y140917D01*
X12267Y140416D01*
X12013Y140000D01*
X10747Y139167D01*
X10177Y138583D01*
X9797Y137750D01*
X9670Y137000D01*
X12330D01*
G01X8000Y122827D02*
Y117906D01*
G01X14345Y32413D02*
X14652Y32155D01*
X14997Y32000D01*
X15303D01*
X15610Y32155D01*
X15840Y32413D01*
X15955Y32775D01*
X15878Y33137D01*
X15687Y33447D01*
X15342Y33653D01*
X14882Y33757D01*
X14613Y33963D01*
X14498Y34325D01*
X14575Y34687D01*
X14767Y34945D01*
X15035Y35100D01*
X15303D01*
X15572Y34997D01*
X15802Y34738D01*
G01X17522Y34583D02*
X17752Y34893D01*
X18020Y35048D01*
X18327Y35100D01*
X18710Y34997D01*
X18978Y34738D01*
X19055Y34428D01*
X19017Y34118D01*
X18863Y33860D01*
X18097Y33343D01*
X17752Y32982D01*
X17522Y32465D01*
X17445Y32000D01*
X19055D01*
G01X22000Y284D02*
X15110D01*
Y35716D01*
X28890D01*
Y284D01*
X22000D01*
G01X21213Y36736D02*
X16882D01*
Y41264D01*
X21213D01*
G01X16383Y42000D02*
Y45100D01*
X17342D01*
X17648Y44945D01*
X17840Y44738D01*
X17917Y44325D01*
X17840Y43912D01*
X17610Y43653D01*
X17342Y43498D01*
X16383D01*
G01X17342D02*
X17917Y42000D01*
G01X19407Y42465D02*
X19637Y42207D01*
X19905Y42052D01*
X20250Y42000D01*
X20595Y42103D01*
X20863Y42310D01*
X21055Y42672D01*
X21093Y43085D01*
X21017Y43498D01*
X20825Y43757D01*
X20557Y43963D01*
X20288Y44015D01*
X20020Y43963D01*
X19675Y43757D01*
X19790Y45100D01*
X20825D01*
G01X22000Y23906D02*
X25937D01*
Y12094D01*
X18063D01*
Y23906D01*
X22000D01*
Y28827D01*
G01X18570Y106000D02*
X21230Y111000D01*
G01X18570D02*
X21230Y106000D01*
G01X25000D02*
Y111000D01*
X24240Y110000D01*
G01Y106000D02*
X25760D01*
G01X27402Y131154D02*
G03Y112846I0J-9154D01*
G01X22000Y7173D02*
Y12094D01*
G01X22787Y36736D02*
X27118D01*
Y41264D01*
X22787D01*
G01X29993Y104842D02*
X29763Y104997D01*
X29495Y105100D01*
X29188D01*
X28843Y104945D01*
X28575Y104687D01*
X28383Y104377D01*
X28230Y103860D01*
X28192Y103395D01*
X28268Y102930D01*
X28383Y102620D01*
X28613Y102310D01*
X28882Y102103D01*
X29150Y102000D01*
X29418D01*
X29687Y102103D01*
X29917Y102258D01*
X30108Y102465D01*
G01X31522Y104583D02*
X31752Y104893D01*
X32020Y105048D01*
X32327Y105100D01*
X32710Y104997D01*
X32978Y104738D01*
X33055Y104428D01*
X33017Y104118D01*
X32863Y103860D01*
X32097Y103343D01*
X31752Y102982D01*
X31522Y102465D01*
X31445Y102000D01*
X33055D01*
G01X52598Y112846D02*
X27402D01*
G01X52598Y131154D02*
X27402D01*
G01X33213Y141937D02*
X27110D01*
Y134063D01*
X33213D01*
G01X28222Y142600D02*
Y145700D01*
X29678D01*
G01X29142Y144202D02*
X28222D01*
G01X32050Y142600D02*
Y145700D01*
X31590Y145080D01*
G01Y142600D02*
X32510D01*
G01X30345Y32413D02*
X30652Y32155D01*
X30997Y32000D01*
X31303D01*
X31610Y32155D01*
X31840Y32413D01*
X31955Y32775D01*
X31878Y33137D01*
X31687Y33447D01*
X31342Y33653D01*
X30882Y33757D01*
X30613Y33963D01*
X30498Y34325D01*
X30575Y34687D01*
X30767Y34945D01*
X31035Y35100D01*
X31303D01*
X31572Y34997D01*
X31802Y34738D01*
G01X33407Y32620D02*
X33637Y32258D01*
X33943Y32052D01*
X34288Y32000D01*
X34595Y32052D01*
X34902Y32310D01*
X35093Y32620D01*
X35132Y32930D01*
X35055Y33292D01*
X34787Y33550D01*
X34518Y33653D01*
X34173D01*
G01X34518D02*
X34748Y33808D01*
X34940Y34067D01*
X35017Y34377D01*
X34940Y34687D01*
X34748Y34945D01*
X34403Y35100D01*
X34058Y35048D01*
X33713Y34842D01*
G01X50000Y95487D02*
X30513Y76000D01*
X50000Y56513D01*
X69487Y76000D01*
X50000Y95487D01*
G01X30507Y97000D02*
Y93417D01*
X30760Y92666D01*
X31267Y92167D01*
X31900Y92000D01*
X32533Y92167D01*
X33040Y92666D01*
X33293Y93417D01*
Y97000D01*
G01X37000Y92000D02*
Y97000D01*
X36240Y96000D01*
G01Y92000D02*
X37760D01*
G01X33213Y110264D02*
X28882D01*
Y105736D01*
X33213D01*
G01X38000Y284D02*
X31110D01*
Y35716D01*
X44890D01*
Y284D01*
X38000D01*
G01X37213Y36736D02*
X32882D01*
Y41264D01*
X37213D01*
G01X32383Y42000D02*
Y45100D01*
X33342D01*
X33648Y44945D01*
X33840Y44738D01*
X33917Y44325D01*
X33840Y43912D01*
X33610Y43653D01*
X33342Y43498D01*
X32383D01*
G01X33342D02*
X33917Y42000D01*
G01X36173D02*
X36250Y42672D01*
X36365Y43240D01*
X36518Y43757D01*
X36710Y44325D01*
X37017Y45100D01*
X35483D01*
G01X38000Y23906D02*
X41937D01*
Y12094D01*
X34063D01*
Y23906D01*
X38000D01*
Y28827D01*
G01X34787Y110264D02*
X39118D01*
Y105736D01*
X34787D01*
G01Y141937D02*
X40890D01*
Y134063D01*
X34787D01*
G01X38000Y7173D02*
Y12094D01*
G01X38787Y36736D02*
X43118D01*
Y41264D01*
X38787D01*
G01X41993Y104842D02*
X41763Y104997D01*
X41495Y105100D01*
X41188D01*
X40843Y104945D01*
X40575Y104687D01*
X40383Y104377D01*
X40230Y103860D01*
X40192Y103395D01*
X40268Y102930D01*
X40383Y102620D01*
X40613Y102310D01*
X40882Y102103D01*
X41150Y102000D01*
X41418D01*
X41687Y102103D01*
X41917Y102258D01*
X42108Y102465D01*
G01X44250Y102000D02*
Y105100D01*
X43790Y104480D01*
G01Y102000D02*
X44710D01*
G01X45213Y105736D02*
X40882D01*
Y110264D01*
X45213D01*
G01X46345Y32413D02*
X46652Y32155D01*
X46997Y32000D01*
X47303D01*
X47610Y32155D01*
X47840Y32413D01*
X47955Y32775D01*
X47878Y33137D01*
X47687Y33447D01*
X47342Y33653D01*
X46882Y33757D01*
X46613Y33963D01*
X46498Y34325D01*
X46575Y34687D01*
X46767Y34945D01*
X47035Y35100D01*
X47303D01*
X47572Y34997D01*
X47802Y34738D01*
G01X50710Y32000D02*
Y35100D01*
X49292Y32878D01*
X51208D01*
G01X46383Y48000D02*
Y51100D01*
X47342D01*
X47648Y50945D01*
X47840Y50738D01*
X47917Y50325D01*
X47840Y49912D01*
X47610Y49653D01*
X47342Y49498D01*
X46383D01*
G01X47342D02*
X47917Y48000D01*
G01X50250D02*
Y51100D01*
X49790Y50480D01*
G01Y48000D02*
X50710D01*
G01X53350Y51100D02*
X53043Y50997D01*
X52813Y50738D01*
X52660Y50428D01*
X52545Y50015D01*
X52507Y49550D01*
X52545Y49085D01*
X52660Y48672D01*
X52813Y48362D01*
X53043Y48103D01*
X53350Y48000D01*
X53657Y48103D01*
X53887Y48362D01*
X54040Y48672D01*
X54155Y49085D01*
X54193Y49550D01*
X54155Y50015D01*
X54040Y50428D01*
X53887Y50738D01*
X53657Y50997D01*
X53350Y51100D01*
G01X47993Y143842D02*
X47763Y143997D01*
X47495Y144100D01*
X47188D01*
X46843Y143945D01*
X46575Y143687D01*
X46383Y143377D01*
X46230Y142860D01*
X46192Y142395D01*
X46268Y141930D01*
X46383Y141620D01*
X46613Y141310D01*
X46882Y141103D01*
X47150Y141000D01*
X47418D01*
X47687Y141103D01*
X47917Y141258D01*
X48108Y141465D01*
G01X49407Y141620D02*
X49637Y141258D01*
X49943Y141052D01*
X50288Y141000D01*
X50595Y141052D01*
X50902Y141310D01*
X51093Y141620D01*
X51132Y141930D01*
X51055Y142292D01*
X50787Y142550D01*
X50518Y142653D01*
X50173D01*
G01X50518D02*
X50748Y142808D01*
X50940Y143067D01*
X51017Y143377D01*
X50940Y143687D01*
X50748Y143945D01*
X50403Y144100D01*
X50058Y144048D01*
X49713Y143842D01*
G01X54000Y284D02*
X47110D01*
Y35716D01*
X60890D01*
Y284D01*
X54000D01*
G01X51213Y41264D02*
X46882D01*
Y36736D01*
X51213D01*
G01Y42736D02*
X46882D01*
Y47264D01*
X51213D01*
G01X51181Y92703D02*
G03I-1181J0D01*
G01X46787Y105736D02*
X51118D01*
Y110264D01*
X46787D01*
G01X48993Y178842D02*
X48763Y178997D01*
X48495Y179100D01*
X48188D01*
X47843Y178945D01*
X47575Y178687D01*
X47383Y178377D01*
X47230Y177860D01*
X47192Y177395D01*
X47268Y176930D01*
X47383Y176620D01*
X47613Y176310D01*
X47882Y176103D01*
X48150Y176000D01*
X48418D01*
X48687Y176103D01*
X48917Y176258D01*
X49108Y176465D01*
G01X51710Y176000D02*
Y179100D01*
X50292Y176878D01*
X52208D01*
G01X54000Y23906D02*
X57937D01*
Y12094D01*
X50063D01*
Y23906D01*
X54000D01*
Y28827D01*
G01X50126Y159032D02*
Y145646D01*
X65874D01*
Y159032D01*
G01X50126Y162968D02*
Y176354D01*
X58000D01*
G01X54000Y7173D02*
Y12094D01*
G01X52787Y41264D02*
X57118D01*
Y36736D01*
X52787D01*
G01Y42736D02*
X57118D01*
Y47264D01*
X52787D01*
G01X52598Y131154D02*
G02Y112846I0J-9154D01*
G01X57213Y144264D02*
X52882D01*
Y139736D01*
X57213D01*
G01X58383Y38000D02*
Y41100D01*
X59342D01*
X59648Y40945D01*
X59840Y40738D01*
X59917Y40325D01*
X59840Y39912D01*
X59610Y39653D01*
X59342Y39498D01*
X58383D01*
G01X59342D02*
X59917Y38000D01*
G01X61598Y38362D02*
X61867Y38103D01*
X62173Y38000D01*
X62480Y38103D01*
X62748Y38413D01*
X62940Y38878D01*
X63017Y39343D01*
Y39912D01*
X62940Y40377D01*
X62748Y40790D01*
X62518Y40997D01*
X62250Y41100D01*
X61943Y40997D01*
X61713Y40790D01*
X61560Y40480D01*
X61483Y40067D01*
X61560Y39705D01*
X61752Y39343D01*
X61982Y39137D01*
X62250Y39085D01*
X62557Y39188D01*
X62787Y39447D01*
X63017Y39912D01*
G01X58787Y144264D02*
X63118D01*
Y139736D01*
X58787D01*
G01X59181Y177929D02*
X63118D01*
G01X62345Y32413D02*
X62652Y32155D01*
X62997Y32000D01*
X63303D01*
X63610Y32155D01*
X63840Y32413D01*
X63955Y32775D01*
X63878Y33137D01*
X63687Y33447D01*
X63342Y33653D01*
X62882Y33757D01*
X62613Y33963D01*
X62498Y34325D01*
X62575Y34687D01*
X62767Y34945D01*
X63035Y35100D01*
X63303D01*
X63572Y34997D01*
X63802Y34738D01*
G01X65407Y32465D02*
X65637Y32207D01*
X65905Y32052D01*
X66250Y32000D01*
X66595Y32103D01*
X66863Y32310D01*
X67055Y32672D01*
X67093Y33085D01*
X67017Y33498D01*
X66825Y33757D01*
X66557Y33963D01*
X66288Y34015D01*
X66020Y33963D01*
X65675Y33757D01*
X65790Y35100D01*
X66825D01*
G01X61150Y175961D02*
Y179898D01*
G01X70000Y284D02*
X63110D01*
Y35716D01*
X76890D01*
Y284D01*
X70000D01*
G01X64633Y43000D02*
X64950Y42500D01*
X65330Y42167D01*
X65773Y42000D01*
X66280Y42167D01*
X66660Y42500D01*
X67040Y43000D01*
X67167Y43667D01*
Y47000D01*
G01X69800D02*
Y42000D01*
G01X68343Y47000D02*
X71257D01*
G01X72053Y42000D02*
Y47000D01*
X73700Y42833D01*
X75347Y47000D01*
Y42000D01*
G01X76270Y42666D02*
X76777Y42250D01*
X77347Y42000D01*
X77853D01*
X78360Y42250D01*
X78740Y42666D01*
X78930Y43250D01*
X78803Y43833D01*
X78487Y44333D01*
X77917Y44667D01*
X77157Y44833D01*
X76713Y45167D01*
X76523Y45750D01*
X76650Y46333D01*
X76967Y46750D01*
X77410Y47000D01*
X77853D01*
X78297Y46833D01*
X78677Y46417D01*
G01X64633Y54000D02*
X64950Y53500D01*
X65330Y53167D01*
X65773Y53000D01*
X66280Y53167D01*
X66660Y53500D01*
X67040Y54000D01*
X67167Y54667D01*
Y58000D01*
G01X69800D02*
Y53000D01*
G01X68343Y58000D02*
X71257D01*
G01X75093Y57583D02*
X74713Y57833D01*
X74270Y58000D01*
X73763D01*
X73193Y57750D01*
X72750Y57333D01*
X72433Y56833D01*
X72180Y56000D01*
X72117Y55250D01*
X72243Y54500D01*
X72433Y54000D01*
X72813Y53500D01*
X73257Y53167D01*
X73700Y53000D01*
X74143D01*
X74587Y53167D01*
X74967Y53417D01*
X75283Y53750D01*
G01X76207Y53000D02*
Y58000D01*
G01X78613D02*
X76207Y54917D01*
G01X78993Y53000D02*
X77283Y56333D01*
G01X65874Y162968D02*
Y176354D01*
X64299D01*
G01X70000Y23906D02*
X73937D01*
Y12094D01*
X66063D01*
Y23906D01*
X70000D01*
Y28827D01*
G01X67213Y114000D02*
Y116500D01*
X67747D01*
X67960Y116375D01*
X68120Y116208D01*
X68253Y115958D01*
X68360Y115667D01*
X68387Y115250D01*
X68360Y114833D01*
X68253Y114542D01*
X68120Y114292D01*
X67960Y114125D01*
X67747Y114000D01*
X67213D01*
G01X69493Y116083D02*
X69653Y116333D01*
X69840Y116458D01*
X70053Y116500D01*
X70320Y116417D01*
X70507Y116208D01*
X70560Y115958D01*
X70533Y115708D01*
X70427Y115500D01*
X69893Y115083D01*
X69653Y114792D01*
X69493Y114375D01*
X69440Y114000D01*
X70560D01*
G01X67267Y128000D02*
Y130500D01*
X67933D01*
X68147Y130375D01*
X68280Y130208D01*
X68333Y129875D01*
X68280Y129542D01*
X68120Y129333D01*
X67933Y129208D01*
X67267D01*
G01X67933D02*
X68333Y128000D01*
G01X69493Y129042D02*
X69680Y129333D01*
X69840Y129500D01*
X70053Y129583D01*
X70240Y129500D01*
X70373Y129333D01*
X70480Y129083D01*
X70507Y128792D01*
X70480Y128542D01*
X70373Y128292D01*
X70213Y128083D01*
X70027Y128000D01*
X69813Y128083D01*
X69627Y128333D01*
X69520Y128708D01*
X69493Y129125D01*
X69547Y129667D01*
X69627Y129958D01*
X69760Y130250D01*
X69947Y130458D01*
X70133Y130500D01*
X70320Y130417D01*
X70453Y130208D01*
G01X67993Y142842D02*
X67763Y142997D01*
X67495Y143100D01*
X67188D01*
X66843Y142945D01*
X66575Y142687D01*
X66383Y142377D01*
X66230Y141860D01*
X66192Y141395D01*
X66268Y140930D01*
X66383Y140620D01*
X66613Y140310D01*
X66882Y140103D01*
X67150Y140000D01*
X67418D01*
X67687Y140103D01*
X67917Y140258D01*
X68108Y140465D01*
G01X69407D02*
X69637Y140207D01*
X69905Y140052D01*
X70250Y140000D01*
X70595Y140103D01*
X70863Y140310D01*
X71055Y140672D01*
X71093Y141085D01*
X71017Y141498D01*
X70825Y141757D01*
X70557Y141963D01*
X70288Y142015D01*
X70020Y141963D01*
X69675Y141757D01*
X69790Y143100D01*
X70825D01*
G01X70000Y7173D02*
Y12094D01*
G01X70280Y63500D02*
X71547D01*
Y62000D01*
X71167Y61500D01*
X70723Y61167D01*
X70090Y61000D01*
X69457Y61167D01*
X69013Y61500D01*
X68633Y62000D01*
X68380Y62583D01*
X68253Y63250D01*
Y63833D01*
X68380Y64333D01*
X68633Y64917D01*
X69013Y65417D01*
X69393Y65750D01*
X69900Y66000D01*
X70343D01*
X70850Y65833D01*
X71230Y65500D01*
G01X72343Y61000D02*
Y66000D01*
X75257Y61000D01*
Y66000D01*
G01X76307Y61000D02*
Y66000D01*
X77573D01*
X78080Y65750D01*
X78460Y65417D01*
X78777Y64917D01*
X79030Y64333D01*
X79093Y63500D01*
X79030Y62667D01*
X78777Y62083D01*
X78460Y61583D01*
X78080Y61250D01*
X77573Y61000D01*
X76307D01*
G01X70633Y98000D02*
X70950Y97500D01*
X71330Y97167D01*
X71773Y97000D01*
X72280Y97167D01*
X72660Y97500D01*
X73040Y98000D01*
X73167Y98667D01*
Y102000D01*
G01X77000Y97000D02*
Y102000D01*
X76240Y101000D01*
G01Y97000D02*
X77760D01*
G01X67736Y107213D02*
Y102882D01*
X72264D01*
Y107213D01*
G01X69100Y107400D02*
X70900D01*
G01X70000D02*
X69100Y108300D01*
X70900D01*
X70000Y107400D01*
G01X67736Y108787D02*
Y113118D01*
X72264D01*
Y108787D01*
G01X67736Y121213D02*
Y116882D01*
X72264D01*
Y121213D01*
G01X67736Y122787D02*
Y127118D01*
X72264D01*
Y122787D01*
G01X68507Y179000D02*
Y175417D01*
X68760Y174666D01*
X69267Y174167D01*
X69900Y174000D01*
X70533Y174167D01*
X71040Y174666D01*
X71293Y175417D01*
Y179000D01*
G01X73607Y175000D02*
X73987Y174417D01*
X74493Y174083D01*
X75063Y174000D01*
X75570Y174083D01*
X76077Y174500D01*
X76393Y175000D01*
X76457Y175500D01*
X76330Y176083D01*
X75887Y176500D01*
X75443Y176667D01*
X74873D01*
G01X75443D02*
X75823Y176917D01*
X76140Y177333D01*
X76267Y177833D01*
X76140Y178333D01*
X75823Y178750D01*
X75253Y179000D01*
X74683Y178917D01*
X74113Y178583D01*
G01X72900Y76000D02*
Y71000D01*
G01X71443Y76000D02*
X74357D01*
G01X75470Y71000D02*
X78130Y76000D01*
G01X75470D02*
X78130Y71000D01*
G01X72633Y81000D02*
Y86000D01*
X74217D01*
X74723Y85750D01*
X75040Y85417D01*
X75167Y84750D01*
X75040Y84083D01*
X74660Y83667D01*
X74217Y83417D01*
X72633D01*
G01X74217D02*
X75167Y81000D01*
G01X76470D02*
X79130Y86000D01*
G01X76470D02*
X79130Y81000D01*
G01X71507Y91750D02*
X71887Y91333D01*
X72330Y91083D01*
X72900Y91000D01*
X73470Y91167D01*
X73913Y91500D01*
X74230Y92083D01*
X74293Y92750D01*
X74167Y93417D01*
X73850Y93833D01*
X73407Y94167D01*
X72963Y94250D01*
X72520Y94167D01*
X71950Y93833D01*
X72140Y96000D01*
X73850D01*
G01X75217D02*
X76800Y91000D01*
X78383Y96000D01*
G01X71736Y135213D02*
Y130882D01*
X76264D01*
Y135213D01*
G01X71736Y136787D02*
Y141118D01*
X76264D01*
Y136787D01*
G01X96795Y153012D02*
X71205D01*
Y166988D01*
X96795D01*
Y153012D01*
G01X73736Y107213D02*
Y102882D01*
X78264D01*
Y107213D01*
G01X75100Y107400D02*
X76900D01*
G01X76000D02*
X75100Y108300D01*
X76900D01*
X76000Y107400D01*
G01X73736Y108787D02*
Y113118D01*
X78264D01*
Y108787D01*
G01X73213Y114000D02*
Y116500D01*
X73747D01*
X73960Y116375D01*
X74120Y116208D01*
X74253Y115958D01*
X74360Y115667D01*
X74387Y115250D01*
X74360Y114833D01*
X74253Y114542D01*
X74120Y114292D01*
X73960Y114125D01*
X73747Y114000D01*
X73213D01*
G01X75413Y114500D02*
X75573Y114208D01*
X75787Y114042D01*
X76027Y114000D01*
X76240Y114042D01*
X76453Y114250D01*
X76587Y114500D01*
X76613Y114750D01*
X76560Y115042D01*
X76373Y115250D01*
X76187Y115333D01*
X75947D01*
G01X76187D02*
X76347Y115458D01*
X76480Y115667D01*
X76533Y115917D01*
X76480Y116167D01*
X76347Y116375D01*
X76107Y116500D01*
X75867Y116458D01*
X75627Y116292D01*
G01X73736Y121213D02*
Y116882D01*
X78264D01*
Y121213D01*
G01X73736Y122787D02*
Y127118D01*
X78264D01*
Y122787D01*
G01X73267Y128000D02*
Y130500D01*
X73933D01*
X74147Y130375D01*
X74280Y130208D01*
X74333Y129875D01*
X74280Y129542D01*
X74120Y129333D01*
X73933Y129208D01*
X73267D01*
G01X73933D02*
X74333Y128000D01*
G01X76000D02*
X76187Y128042D01*
X76400Y128167D01*
X76533Y128375D01*
X76587Y128667D01*
X76533Y128958D01*
X76373Y129208D01*
X76133Y129333D01*
X75867D01*
X75707Y129417D01*
X75573Y129625D01*
X75520Y129917D01*
X75600Y130208D01*
X75787Y130417D01*
X76000Y130500D01*
X76213Y130417D01*
X76400Y130208D01*
X76480Y129917D01*
X76427Y129625D01*
X76293Y129417D01*
X76133Y129333D01*
X75867D01*
X75627Y129208D01*
X75467Y128958D01*
X75413Y128667D01*
X75467Y128375D01*
X75600Y128167D01*
X75813Y128042D01*
X76000Y128000D01*
G01X77383Y140000D02*
Y143100D01*
X78342D01*
X78648Y142945D01*
X78840Y142738D01*
X78917Y142325D01*
X78840Y141912D01*
X78610Y141653D01*
X78342Y141498D01*
X77383D01*
G01X78342D02*
X78917Y140000D01*
G01X81250D02*
Y143100D01*
X80790Y142480D01*
G01Y140000D02*
X81710D01*
G01X80633Y1000D02*
X80950Y500D01*
X81330Y167D01*
X81773Y0D01*
X82280Y167D01*
X82660Y500D01*
X83040Y1000D01*
X83167Y1667D01*
Y5000D01*
G01X87760Y0D02*
Y5000D01*
X85417Y1417D01*
X88583D01*
G01X78633Y15000D02*
X78950Y14500D01*
X79330Y14167D01*
X79773Y14000D01*
X80280Y14167D01*
X80660Y14500D01*
X81040Y15000D01*
X81167Y15667D01*
Y19000D01*
G01X83797Y18167D02*
X84177Y18667D01*
X84620Y18917D01*
X85127Y19000D01*
X85760Y18833D01*
X86203Y18417D01*
X86330Y17917D01*
X86267Y17416D01*
X86013Y17000D01*
X84747Y16167D01*
X84177Y15583D01*
X83797Y14750D01*
X83670Y14000D01*
X86330D01*
G01X79000Y60000D02*
Y20000D01*
X89000D01*
Y60000D01*
X79000D01*
G01Y100000D02*
Y60000D01*
X89000D01*
Y100000D01*
X79000D01*
G01X79736Y107213D02*
Y102882D01*
X84264D01*
Y107213D01*
G01X79736Y108787D02*
Y113118D01*
X84264D01*
Y108787D01*
G01X79213Y114000D02*
Y116500D01*
X79747D01*
X79960Y116375D01*
X80120Y116208D01*
X80253Y115958D01*
X80360Y115667D01*
X80387Y115250D01*
X80360Y114833D01*
X80253Y114542D01*
X80120Y114292D01*
X79960Y114125D01*
X79747Y114000D01*
X79213D01*
G01X82320D02*
Y116500D01*
X81333Y114708D01*
X82667D01*
G01X79736Y121213D02*
Y116882D01*
X84264D01*
Y121213D01*
G01X79736Y122787D02*
Y127118D01*
X84264D01*
Y122787D01*
G01X79267Y128000D02*
Y130500D01*
X79933D01*
X80147Y130375D01*
X80280Y130208D01*
X80333Y129875D01*
X80280Y129542D01*
X80120Y129333D01*
X79933Y129208D01*
X79267D01*
G01X79933D02*
X80333Y128000D01*
G01X82000D02*
Y130500D01*
X81680Y130000D01*
G01Y128000D02*
X82320D01*
G01X84200D02*
Y130500D01*
X83880Y130000D01*
G01Y128000D02*
X84520D01*
G01X81100Y107400D02*
X82900D01*
G01X82000D02*
X81100Y108300D01*
X82900D01*
X82000Y107400D01*
G01X81736Y135213D02*
Y130882D01*
X86264D01*
Y135213D01*
G01X81736Y136787D02*
Y141118D01*
X86264D01*
Y136787D01*
G01X87307Y140000D02*
Y143100D01*
X88073D01*
X88380Y142945D01*
X88610Y142738D01*
X88802Y142428D01*
X88955Y142067D01*
X88993Y141550D01*
X88955Y141033D01*
X88802Y140672D01*
X88610Y140362D01*
X88380Y140155D01*
X88073Y140000D01*
X87307D01*
G01X91250D02*
Y143100D01*
X90790Y142480D01*
G01Y140000D02*
X91710D01*
G01X89000Y80000D02*
Y0D01*
X99000D01*
Y80000D01*
X89000D01*
G01Y120000D02*
Y80000D01*
X99000D01*
Y120000D01*
X89000D01*
G01X89633Y121000D02*
X89950Y120500D01*
X90330Y120167D01*
X90773Y120000D01*
X91280Y120167D01*
X91660Y120500D01*
X92040Y121000D01*
X92167Y121667D01*
Y125000D01*
G01X94607Y120750D02*
X94987Y120333D01*
X95430Y120083D01*
X96000Y120000D01*
X96570Y120167D01*
X97013Y120500D01*
X97330Y121083D01*
X97393Y121750D01*
X97267Y122417D01*
X96950Y122833D01*
X96507Y123167D01*
X96063Y123250D01*
X95620Y123167D01*
X95050Y122833D01*
X95240Y125000D01*
X96950D01*
G01X96264Y135213D02*
Y130882D01*
X91736D01*
Y135213D01*
G01X94900Y136600D02*
X93100D01*
G01X94000D02*
X94900Y135700D01*
X93100D01*
X94000Y136600D01*
G01X96264Y136787D02*
Y141118D01*
X91736D01*
Y136787D01*
M02*
